<svg width="529" height="26" viewBox="0 0 529 26" fill="none" xmlns="http://www.w3.org/2000/svg">
<path d="M0.803781 25V1.24H19.3078V6.028H6.99578V10.852H16.7878V15.352H6.99578V20.212H19.7758V25H0.803781ZM45.2587 1.24L36.8347 25H29.5627L21.1027 1.24H27.6187L31.9747 15.604L33.2707 20.284L34.5307 15.676L38.9587 1.24H45.2587ZM48.0889 25V1.24H66.5929V6.028H54.2809V10.852H64.0729V15.352H54.2809V20.212H67.0609V25H48.0889ZM82.1399 1.24C84.9719 1.24 87.1679 1.912 88.7279 3.256C90.3119 4.576 91.1039 6.34 91.1039 8.548C91.1039 10.972 90.3239 12.82 88.7639 14.092C87.2039 15.364 85.0079 16 82.1759 16L81.5999 16.324H76.8839V25H70.7999V1.24H82.1399ZM81.2759 11.932C82.4759 11.932 83.3759 11.692 83.9759 11.212C84.5759 10.732 84.8759 9.964 84.8759 8.908C84.8759 7.876 84.5759 7.12 83.9759 6.64C83.3759 6.16 82.4759 5.92 81.2759 5.92H76.8839V11.932H81.2759ZM84.9119 13.228L92.5079 25H85.6679L79.5839 14.596L84.9119 13.228ZM114.843 1.24L106.455 16.324V25H100.263V16.324L91.8748 1.24H98.2828L101.631 7.756L103.395 11.716L105.195 7.756L108.543 1.24H114.843ZM127.638 1.24C131.358 1.24 134.202 2.272 136.17 4.336C138.162 6.4 139.158 9.328 139.158 13.12C139.158 16.912 138.162 19.84 136.17 21.904C134.202 23.968 131.358 25 127.638 25H117.558V1.24H127.638ZM127.026 20.32C129.042 20.32 130.506 19.72 131.418 18.52C132.354 17.296 132.822 15.496 132.822 13.12C132.822 10.744 132.354 8.956 131.418 7.756C130.506 6.532 129.042 5.92 127.026 5.92H123.75V20.32H127.026ZM164.119 25H157.747L156.091 19.636H147.955L146.263 25H140.035L148.387 1.24H155.803L164.119 25ZM149.107 15.424H154.939L152.023 5.812L149.107 15.424ZM183.784 1.24L175.396 16.324V25H169.204V16.324L160.816 1.24H167.224L170.572 7.756L172.336 11.716L174.136 7.756L177.484 1.24H183.784ZM216.942 3.94H203.19V11.608H213.918V14.308H203.19V25H200.31V1.24H216.942V3.94ZM225.163 1.24V25H222.283V1.24H225.163ZM251.583 1.24V25H248.019L238.083 9.088L235.563 4.624H235.527L235.671 8.224V25H232.935V1.24H236.499L246.399 17.08L248.955 21.652H248.991L248.847 18.016V1.24H251.583ZM259.372 25V1.24H276.04V3.94H262.252V11.608H272.98V14.308H262.252V22.3H276.58V25H259.372ZM312.094 25H309.034L306.514 18.412H295.75L293.23 25H290.206L299.458 1.24H302.878L312.094 25ZM296.794 15.712H305.47L301.114 4.012L296.794 15.712ZM325.923 1.24C328.347 1.24 330.291 1.864 331.755 3.112C333.219 4.36 333.951 6.052 333.951 8.188C333.951 10.324 333.207 11.992 331.719 13.192C330.255 14.368 328.311 14.956 325.887 14.956L325.635 15.136H319.803V25H316.923V1.24H325.923ZM325.887 12.436C327.591 12.436 328.851 12.088 329.667 11.392C330.507 10.672 330.927 9.604 330.927 8.188C330.927 6.772 330.507 5.716 329.667 5.02C328.851 4.3 327.591 3.94 325.887 3.94H319.803V12.436H325.887ZM327.543 13.012L335.391 25H331.971L325.131 14.596L327.543 13.012ZM356.865 1.24V3.94H348.585V25H345.705V3.94H337.425V1.24H356.865ZM382.749 25.36C380.493 25.36 378.537 24.868 376.881 23.884C375.249 22.876 373.977 21.46 373.065 19.636C372.177 17.812 371.733 15.64 371.733 13.12C371.733 10.6 372.201 8.428 373.137 6.604C374.097 4.78 375.429 3.376 377.133 2.392C378.837 1.384 380.793 0.879999 383.001 0.879999C385.353 0.879999 387.261 1.324 388.725 2.212C390.213 3.1 391.413 4.468 392.325 6.316L389.697 7.756C389.169 6.388 388.329 5.356 387.177 4.66C386.049 3.94 384.657 3.58 383.001 3.58C381.393 3.58 379.965 3.964 378.717 4.732C377.493 5.476 376.521 6.568 375.801 8.008C375.105 9.424 374.757 11.128 374.757 13.12C374.757 15.112 375.057 16.828 375.657 18.268C376.281 19.684 377.193 20.776 378.393 21.544C379.617 22.288 381.105 22.66 382.857 22.66C383.841 22.66 384.753 22.54 385.593 22.3C386.457 22.036 387.201 21.652 387.825 21.148C388.473 20.644 388.977 20.008 389.337 19.24C389.697 18.472 389.877 17.572 389.877 16.54V15.712H382.317V13.012H392.505V25H390.237L390.093 20.572L390.705 20.68C390.081 22.168 389.097 23.32 387.753 24.136C386.409 24.952 384.741 25.36 382.749 25.36ZM418.16 25H415.1L412.58 18.412H401.816L399.296 25H396.272L405.524 1.24H408.944L418.16 25ZM402.86 15.712H411.536L407.18 4.012L402.86 15.712ZM425.87 22.3H439.478V25H422.99V1.24H425.87V22.3ZM447.385 22.3H460.993V25H444.505V1.24H447.385V22.3ZM466.021 25V1.24H482.689V3.94H468.901V11.608H479.629V14.308H468.901V22.3H483.229V25H466.021ZM497.978 1.24C500.402 1.24 502.346 1.864 503.81 3.112C505.274 4.36 506.006 6.052 506.006 8.188C506.006 10.324 505.262 11.992 503.774 13.192C502.31 14.368 500.366 14.956 497.942 14.956L497.69 15.136H491.858V25H488.978V1.24H497.978ZM497.942 12.436C499.646 12.436 500.906 12.088 501.722 11.392C502.562 10.672 502.982 9.604 502.982 8.188C502.982 6.772 502.562 5.716 501.722 5.02C500.906 4.3 499.646 3.94 497.942 3.94H491.858V12.436H497.942ZM499.598 13.012L507.446 25H504.026L497.186 14.596L499.598 13.012ZM528.455 1.24L519.959 15.712V25H517.079V15.712L508.583 1.24H512.003L516.611 9.376L518.519 12.76L520.427 9.376L525.035 1.24H528.455Z" fill="black"/>
</svg>
